<svg width="200" height="200" viewBox="0 0 200 200" fill="none"
	xmlns="http://www.w3.org/2000/svg">
	<g id="Rey">
		<g id="body">
			<g id="Vector">
				<path d="M33.5883 133.549C33.3683 131.656 34.7404 129.985 36.5137 129.985H161.521C163.294 129.985 164.666 131.656 164.446 133.549L158.641 183.49C158.534 184.409 158.071 185.229 157.341 185.72C129.752 204.273 73.9735 205.245 40.8382 185.708C40.026 185.229 39.4943 184.357 39.3794 183.368L33.5883 133.549Z" fill="black"/>
				<path d="M74.4489 0H128.499V58.1234H74.4489V0Z" fill="black"/>
				<path d="M180.328 119.6C158.576 143.822 127.69 149.696 111.343 132.72C94.9951 115.744 94.9542 81.2891 116.706 57.0666C138.459 32.8441 173.767 28.0267 190.114 45.0029C206.462 61.9791 202.081 95.3772 180.328 119.6Z" fill="black"/>
				<path d="M83.2935 57.0666C105.046 81.2891 105.005 115.744 88.6573 132.72C72.3098 149.696 41.4239 143.822 19.6717 119.6C-2.08053 95.3772 -6.46193 61.9791 9.88555 45.0029C26.233 28.0267 61.5413 32.8441 83.2935 57.0666Z" fill="black"/>
				<path d="M117.689 127.343C117.689 136.39 109.989 143.723 100.491 143.723C90.9933 143.723 83.2935 136.39 83.2935 127.343C83.2935 118.297 90.1804 99.3382 99.6785 99.3382C109.177 99.3382 117.689 118.297 117.689 127.343Z" fill="black"/>
			</g>
		</g>
		<g id="detail">
			<path id="Vector_2" d="M46.5 180C63.9496 163.446 127.942 163.438 151 180" stroke="white" stroke-width="7"/>
			<path id="Vector_3" d="M40 137.452C59.5369 120.437 131.184 120.429 157 137.452" stroke="white" stroke-width="7"/>
			<ellipse id="Ellipse_9" rx="21.609" ry="35.7304" transform="matrix(0.722245 -0.691637 0.646038 0.763305 50.6902 95.6392)" stroke="white" stroke-width="8"/>
			<ellipse id="Ellipse_10" rx="21.6091" ry="35.7303" transform="matrix(0.722197 0.691687 -0.646091 0.763261 145.691 96.7023)" stroke="white" stroke-width="8"/>
			<path id="Ellipse_11" d="M99.5 149.089C101.619 149.089 103.567 148.907 105.011 148.6C105.725 148.448 106.37 148.255 106.86 148.008C107.103 147.886 107.36 147.725 107.568 147.508C107.78 147.288 108 146.945 108 146.494C108 146.042 107.78 145.699 107.568 145.479C107.36 145.262 107.103 145.102 106.86 144.979C106.37 144.733 105.725 144.539 105.011 144.387C103.567 144.08 101.619 143.898 99.5 143.898C97.3806 143.898 95.4326 144.08 93.9886 144.387C93.2748 144.539 92.6304 144.733 92.1401 144.979C91.8965 145.102 91.6399 145.262 91.4317 145.479C91.2195 145.699 91 146.042 91 146.494C91 146.945 91.2195 147.288 91.4317 147.508C91.6399 147.725 91.8965 147.886 92.1401 148.008C92.6304 148.255 93.2748 148.448 93.9886 148.6C95.4326 148.907 97.3806 149.089 99.5 149.089Z" fill="white" stroke="white" stroke-width="2"/>
			<path id="Ellipse_12" d="M50.4764 157.579C52.3639 156.558 54.0204 155.458 55.1741 154.49C55.7445 154.012 56.2343 153.531 56.5643 153.077C56.728 152.852 56.8876 152.587 56.9808 152.294C57.0753 151.997 57.1281 151.577 56.9301 151.163C56.7321 150.749 56.3823 150.547 56.1009 150.453C55.8235 150.361 55.5278 150.342 55.2605 150.35C54.7216 150.366 54.0675 150.504 53.368 150.712C51.953 151.134 50.1415 151.909 48.254 152.93C46.3665 153.951 44.71 155.051 43.5563 156.019C42.9859 156.498 42.4961 156.979 42.1661 157.432C42.0025 157.657 41.8428 157.923 41.7497 158.216C41.6551 158.513 41.6023 158.932 41.8003 159.347C41.9983 159.761 42.3481 159.962 42.6295 160.056C42.9069 160.149 43.2026 160.168 43.4699 160.16C44.0089 160.143 44.6629 160.006 45.3624 159.797C46.7774 159.376 48.5889 158.6 50.4764 157.579Z" fill="white" stroke="white" stroke-width="2"/>
			<path id="Ellipse_13" d="M149.254 158.643C151.142 159.663 152.953 160.439 154.368 160.86C155.068 161.069 155.722 161.206 156.261 161.223C156.528 161.231 156.824 161.212 157.101 161.119C157.383 161.025 157.732 160.824 157.93 160.409C158.128 159.995 158.076 159.576 157.981 159.279C157.888 158.986 157.728 158.72 157.565 158.495C157.234 158.042 156.745 157.561 156.174 157.082C155.02 156.114 153.364 155.014 151.476 153.994C149.589 152.973 147.777 152.197 146.362 151.776C145.663 151.567 145.009 151.43 144.47 151.414C144.202 151.405 143.907 151.425 143.629 151.517C143.348 151.611 142.998 151.813 142.8 152.227C142.602 152.641 142.655 153.06 142.75 153.358C142.843 153.65 143.002 153.916 143.166 154.141C143.496 154.594 143.986 155.076 144.556 155.554C145.71 156.522 147.367 157.622 149.254 158.643Z" fill="white" stroke="white" stroke-width="2"/>
			<line id="Line_1" y1="-2.5" x2="50.3735" y2="-2.5" transform="matrix(0.684956 -0.728584 0.684956 0.728584 85 47.7013)" stroke="white" stroke-width="5"/>
			<line id="Line_2" y1="-2.5" x2="50.3735" y2="-2.5" transform="matrix(0.684956 0.728584 -0.684956 0.728584 82 11)" stroke="white" stroke-width="5"/>
		</g>
	</g>
</svg>