<svg width="200" height="200" viewBox="0 0 200 200" fill="none"
	xmlns="http://www.w3.org/2000/svg">
	<g id="Caballo" clip-path="url(#clip0_4_19)">
		<g id="body">
			<g id="Vector">
				<path d="M179.999 66.8367C200.512 93.7755 199.999 168.197 199.999 200H56.9364C56.9364 188.946 59.0902 168.265 69.7568 157.653C83.09 144.388 88.2182 144.388 95.3977 130.102C101.141 118.673 102.262 107.993 102.105 104.082C98.7626 108.925 94.2469 113.661 88.2182 116.327C65.1414 126.531 71.1545 121.949 57.4491 138.776C41.8646 157.91 40.2815 155.249 29.757 156.122C18.5489 157.052 3.36294 141.239 2.57767 139.286C-0.499246 131.633 -4.60178 110.714 15.3981 92.3469C35.398 73.9796 24.6288 61.2245 32.3211 46.9388C35.3561 41.3023 38.1416 38.0817 40.5546 36.1017C41.039 34.543 41.0634 29.161 39.0271 20.7039C36.9334 12.0083 41.2953 3.96825 43.7379 1.0352C58.8125 10.9731 66.4195 22.4293 68.3388 26.9151L66.6663 27.4746C70.5171 26.9988 74.9759 26.6046 80.0981 26.3473L75.1432 26.3975C75.3177 21.3941 78.0744 9.10973 87.7054 0C95.5002 6.93878 99.8421 20.3144 101.039 26.1348C133.977 27.2536 156.025 35.3521 179.999 66.8367Z" fill="black"/>
				<path d="M102.105 104.082C98.7626 108.925 94.2469 113.661 88.2182 116.327C65.1414 126.531 71.1545 121.949 57.4491 138.776C41.8646 157.91 40.2815 155.249 29.757 156.122C18.5489 157.052 3.36294 141.239 2.57767 139.286C-0.499246 131.633 -4.60178 110.714 15.3981 92.3469C35.398 73.9796 24.6288 61.2245 32.3211 46.9388C38.4749 35.5102 43.6031 34.0136 46.68 32.6531C49.586 30.4422 63.0902 26.0204 93.8592 26.0204C96.3592 26.0204 98.7488 26.0571 101.039 26.1348M102.105 104.082C108.997 94.0931 110.897 81.4762 110.782 74.4898M102.105 104.082C102.262 107.993 101.141 118.673 95.3977 130.102C88.2182 144.388 83.09 144.388 69.7568 157.653C59.0902 168.265 56.9364 188.946 56.9364 200H199.999C199.999 168.197 200.512 93.7755 179.999 66.8367C156.025 35.3521 133.977 27.2536 101.039 26.1348M101.039 26.1348C99.8421 20.3144 95.5002 6.93878 87.7054 0C78.0744 9.10973 75.3177 21.3941 75.1433 26.3975L101.039 26.1348ZM68.3388 26.9151C66.4195 22.4293 58.8125 10.9731 43.7379 1.0352C41.2953 3.96825 36.9334 12.0083 39.0271 20.7039C41.1208 29.3996 41.036 34.8442 40.5126 36.2245L68.3388 26.9151Z" stroke="black"/>
			</g>
		</g>
		<g id="detail">
			<ellipse id="Ellipse 4" cx="56.0001" cy="69" rx="3" ry="5" fill="white"/>
			<ellipse id="Ellipse 5" cx="21.2236" cy="124.684" rx="2.78127" ry="9.86959" transform="rotate(33.5836 21.2236 124.684)" fill="white"/>
			<g id="Vector_2">
				<path d="M45.0456 74.1196C44.6436 74.9325 44.2937 75.704 44 76.4098C44.2635 75.7299 44.6122 74.9551 45.0456 74.1196C48.5215 67.0914 55.8932 56.9709 64.4965 59.4715C54.424 60.4934 47.8986 68.6207 45.0456 74.1196Z" fill="white"/>
				<path d="M45.0456 74.1196C44.6436 74.9325 44.2937 75.704 44 76.4098C44.2635 75.7299 44.6122 74.9551 45.0456 74.1196ZM45.0456 74.1196C48.5215 67.0914 55.8932 56.9709 64.4965 59.4715C54.424 60.4934 47.8986 68.6207 45.0456 74.1196Z" stroke="white"/>
			</g>
			<g id="Vector_1">
				<path d="M133.819 46.0971C195.181 75.6302 191.282 151.49 196 197H192.5L192.497 196.818C191.74 156.269 190.22 74.7698 133.819 46.0971C127.99 43.2914 121.571 40.9037 114.5 39C121.567 40.7316 127.986 43.1318 133.819 46.0971Z" fill="white"/>
				<path d="M196 197C190.833 147.167 196 60.9423 114.5 39C190 57.5 191.667 152.333 192.5 197H196Z" stroke="white"/>
			</g>
			<path id="Vector_4" d="M112 73C112 92 105.5 103 101 107" stroke="white"/>
		</g>
	</g>
	<defs>
		<clipPath id="clip0_4_19">
			<rect width="200" height="200" fill="white"/>
		</clipPath>
	</defs>
</svg>