<svg width="200" height="200" viewBox="0 0 200 200" fill="none"
    xmlns="http://www.w3.org/2000/svg">
    <g clip-path="url(#clip0_10_11)">
        <rect x="47" y="58.8609" width="13.7218" height="107.03" transform="rotate(-30 47 58.8609)" fill="#C4C4C4"/>
        <path d="M161 202.5C161 186.189 154.521 170.546 142.987 159.013C131.454 147.479 115.811 141 99.5 141C83.1892 141 67.5464 147.479 56.0129 159.013C44.4794 170.546 38 186.189 38 202.5L99.5 202.5H161Z" fill="#6D6C69"/>
        <path d="M161 202.5C161 186.189 155.205 170.546 144.891 159.013C134.576 147.479 120.587 141 106 141C91.4131 141 77.4236 147.479 67.1091 159.013C56.7946 170.546 51 186.189 51 202.5L106 202.5H161Z" fill="#7C7A75"/>
        <circle cx="41.9171" cy="34.2583" r="32" fill="#D8422E"/>
        <path d="M41.7295 65.9303C37.7079 65.1927 33.884 63.6043 30.4963 61.2641C27.1086 58.9238 24.2297 55.882 22.0389 52.3281C19.8482 48.7742 18.3927 44.7844 17.7631 40.6076C17.1334 36.4308 17.3432 32.1563 18.3794 28.0508C19.4155 23.9453 21.2558 20.0966 23.7855 16.7448C26.3151 13.3929 29.48 10.6097 33.0828 8.56873C36.6855 6.52771 40.6489 5.2726 44.7259 4.88165C48.8029 4.4907 52.9061 4.97228 56.7797 6.29638L47.1963 35.5759L41.7295 65.9303Z" fill="#E35F46"/>
        <path d="M56.67 6.25681C63.0564 9.49052 68.1538 14.7993 71.1255 21.3118C74.0972 27.8243 74.7666 35.1536 73.0238 42.0967C71.281 49.0398 67.2297 55.1841 61.5347 59.5213C55.8397 63.8584 48.8394 66.1306 41.6829 65.965L42.4132 34.4133L56.67 6.25681Z" fill="#E35F46"/>
        <path d="M66.1338 13.5956C68.9094 16.7582 71.0245 20.4439 72.3548 24.436C73.685 28.428 74.2035 32.6458 73.8798 36.8412L42.4132 34.4133L66.1338 13.5956Z" fill="#ED8774"/>
        <path d="M73.8779 36.806C72.4028 40.2253 69.9027 43.0998 66.7117 45.0456C63.5207 46.9915 59.7906 47.916 56.0198 47.6956C52.2491 47.4752 48.6171 46.1205 45.6093 43.8124C42.6014 41.5043 40.3607 38.3527 39.1867 34.7786C38.0127 31.2046 37.9611 27.3783 39.039 23.8108C40.1168 20.2434 42.2727 17.1048 45.2187 14.8142C48.1646 12.5236 51.7603 11.1902 55.5255 10.992C59.2906 10.7939 63.0459 11.7404 66.2896 13.7052L56.8098 29.3469L73.8779 36.806Z" fill="#ED8774"/>
    </g>
    <defs>
        <clipPath id="clip0_10_11">
            <rect width="200" height="200" fill="white"/>
        </clipPath>
    </defs>
</svg>
