<svg width="200" height="200" viewBox="0 0 200 200" fill="none"
    xmlns="http://www.w3.org/2000/svg">
    <g clip-path="url(#clip0_10_2)">
        <rect x="133.913" y="53.3655" width="13.7218" height="107.03" transform="rotate(30 133.913 53.3655)" fill="#C4C4C4"/>
        <path d="M161 200.5C161 184.189 154.521 168.546 142.987 157.013C131.454 145.479 115.811 139 99.5 139C83.1892 139 67.5464 145.479 56.0129 157.013C44.4794 168.546 38 184.189 38 200.5L99.5 200.5H161Z" fill="#6D6C69"/>
        <path d="M161 200.5C161 184.189 155.205 168.546 144.891 157.013C134.576 145.479 120.587 139 106 139C91.4131 139 77.4236 145.479 67.1091 157.013C56.7946 168.546 51 184.189 51 200.5L106 200.5H161Z" fill="#7C7A75"/>
        <circle cx="154" cy="34" r="32" fill="#D8422E"/>
        <path d="M153.812 65.672C149.791 64.9344 145.967 63.346 142.579 61.0058C139.192 58.6655 136.313 55.6237 134.122 52.0698C131.931 48.5159 130.476 44.5261 129.846 40.3493C129.216 36.1725 129.426 31.898 130.462 27.7925C131.498 23.687 133.339 19.8383 135.868 16.4865C138.398 13.1346 141.563 10.3514 145.166 8.31043C148.768 6.26941 152.732 5.0143 156.809 4.62335C160.886 4.2324 164.989 4.71398 168.863 6.03808L159.279 35.3176L153.812 65.672Z" fill="#E35F46"/>
        <path d="M168.753 5.99851C175.139 9.23222 180.237 14.541 183.208 21.0535C186.18 27.566 186.849 34.8953 185.107 41.8384C183.364 48.7815 179.313 54.9258 173.618 59.263C167.923 63.6001 160.922 65.8723 153.766 65.7067L154.496 34.155L168.753 5.99851Z" fill="#E35F46"/>
        <path d="M178.217 13.3373C180.992 16.4999 183.107 20.1856 184.438 24.1777C185.768 28.1697 186.286 32.3875 185.963 36.5829L154.496 34.155L178.217 13.3373Z" fill="#ED8774"/>
        <path d="M185.961 36.5477C184.486 39.967 181.986 42.8415 178.795 44.7873C175.604 46.7332 171.873 47.6577 168.103 47.4373C164.332 47.2169 160.7 45.8622 157.692 43.5541C154.684 41.246 152.444 38.0944 151.27 34.5203C150.096 30.9463 150.044 27.12 151.122 23.5525C152.2 19.9851 154.356 16.8465 157.302 14.5559C160.248 12.2653 163.843 10.9319 167.608 10.7337C171.373 10.5356 175.129 11.4821 178.372 13.4469L168.893 29.0886L185.961 36.5477Z" fill="#ED8774"/>
    </g>
    <defs>
        <clipPath id="clip0_10_2">
            <rect width="200" height="200" fill="white"/>
        </clipPath>
    </defs>
</svg>
